<mxfile host="app.diagrams.net" modified="2024-01-29T16:04:54.109Z" agent="Mozilla/5.0 (Windows NT 10.0; Win64; x64) AppleWebKit/537.36 (KHTML, like Gecko) Chrome/121.0.0.0 Safari/537.36 Edg/121.0.0.0" etag="5oZbv9ubegks-MnexoDq" version="23.0.2" type="device">
  <diagram name="Page-1" id="-aByymKUQa_A4i8YoMSr">
    <mxGraphModel dx="933" dy="584" grid="1" gridSize="10" guides="1" tooltips="1" connect="1" arrows="1" fold="1" page="1" pageScale="1" pageWidth="850" pageHeight="1100" math="0" shadow="0">
      <root>
        <mxCell id="0" />
        <mxCell id="1" parent="0" />
        <mxCell id="XJCAifkZVqGINSNeB5S7-4" style="edgeStyle=orthogonalEdgeStyle;rounded=0;orthogonalLoop=1;jettySize=auto;html=1;entryX=0;entryY=0.5;entryDx=0;entryDy=0;" parent="1" source="XJCAifkZVqGINSNeB5S7-2" target="XJCAifkZVqGINSNeB5S7-3" edge="1">
          <mxGeometry relative="1" as="geometry" />
        </mxCell>
        <mxCell id="XJCAifkZVqGINSNeB5S7-2" value="guest" style="shape=umlActor;verticalLabelPosition=bottom;verticalAlign=top;html=1;" parent="1" vertex="1">
          <mxGeometry x="90" y="380" width="30" height="60" as="geometry" />
        </mxCell>
        <mxCell id="XJCAifkZVqGINSNeB5S7-9" style="edgeStyle=orthogonalEdgeStyle;rounded=0;orthogonalLoop=1;jettySize=auto;html=1;" parent="1" source="XJCAifkZVqGINSNeB5S7-3" target="XJCAifkZVqGINSNeB5S7-5" edge="1">
          <mxGeometry relative="1" as="geometry">
            <Array as="points">
              <mxPoint x="240" y="170" />
            </Array>
          </mxGeometry>
        </mxCell>
        <mxCell id="XJCAifkZVqGINSNeB5S7-3" value="login" style="ellipse;whiteSpace=wrap;html=1;" parent="1" vertex="1">
          <mxGeometry x="180" y="380" width="90" height="60" as="geometry" />
        </mxCell>
        <mxCell id="eAod_zT2K9FnRiEAxt5G-15" style="edgeStyle=orthogonalEdgeStyle;rounded=0;orthogonalLoop=1;jettySize=auto;html=1;entryX=0.5;entryY=0;entryDx=0;entryDy=0;" edge="1" parent="1" source="XJCAifkZVqGINSNeB5S7-5" target="eAod_zT2K9FnRiEAxt5G-14">
          <mxGeometry relative="1" as="geometry" />
        </mxCell>
        <mxCell id="XJCAifkZVqGINSNeB5S7-5" value="admin" style="shape=umlActor;verticalLabelPosition=bottom;verticalAlign=top;html=1;" parent="1" vertex="1">
          <mxGeometry x="260" y="140" width="30" height="60" as="geometry" />
        </mxCell>
        <mxCell id="eAod_zT2K9FnRiEAxt5G-9" style="edgeStyle=orthogonalEdgeStyle;rounded=0;orthogonalLoop=1;jettySize=auto;html=1;entryX=0;entryY=0.5;entryDx=0;entryDy=0;" edge="1" parent="1" source="XJCAifkZVqGINSNeB5S7-6" target="eAod_zT2K9FnRiEAxt5G-1">
          <mxGeometry relative="1" as="geometry" />
        </mxCell>
        <mxCell id="XJCAifkZVqGINSNeB5S7-6" value="customer" style="shape=umlActor;verticalLabelPosition=bottom;verticalAlign=top;html=1;" parent="1" vertex="1">
          <mxGeometry x="90" y="620" width="30" height="60" as="geometry" />
        </mxCell>
        <mxCell id="XJCAifkZVqGINSNeB5S7-7" value="cat store" style="shape=umlFrame;whiteSpace=wrap;html=1;pointerEvents=0;" parent="1" vertex="1">
          <mxGeometry x="160" y="310" width="750" height="560" as="geometry" />
        </mxCell>
        <mxCell id="XJCAifkZVqGINSNeB5S7-11" style="edgeStyle=orthogonalEdgeStyle;rounded=0;orthogonalLoop=1;jettySize=auto;html=1;entryX=0.579;entryY=0.307;entryDx=0;entryDy=0;entryPerimeter=0;" parent="1" target="XJCAifkZVqGINSNeB5S7-6" edge="1">
          <mxGeometry relative="1" as="geometry">
            <mxPoint x="197.5" y="433.8142396999972" as="sourcePoint" />
            <mxPoint x="90" y="620" as="targetPoint" />
            <Array as="points">
              <mxPoint x="198" y="638" />
              <mxPoint x="150" y="638" />
            </Array>
          </mxGeometry>
        </mxCell>
        <mxCell id="eAod_zT2K9FnRiEAxt5G-1" value="pay" style="ellipse;whiteSpace=wrap;html=1;" vertex="1" parent="1">
          <mxGeometry x="210" y="750" width="100" height="50" as="geometry" />
        </mxCell>
        <mxCell id="eAod_zT2K9FnRiEAxt5G-2" value="see items" style="ellipse;whiteSpace=wrap;html=1;" vertex="1" parent="1">
          <mxGeometry x="350" y="710" width="95" height="50" as="geometry" />
        </mxCell>
        <mxCell id="eAod_zT2K9FnRiEAxt5G-3" value="register" style="ellipse;whiteSpace=wrap;html=1;" vertex="1" parent="1">
          <mxGeometry x="225" y="480" width="100" height="50" as="geometry" />
        </mxCell>
        <mxCell id="eAod_zT2K9FnRiEAxt5G-5" value="Use" style="endArrow=open;endSize=12;dashed=1;html=1;rounded=0;exitX=0;exitY=0;exitDx=0;exitDy=0;entryX=0.796;entryY=0.867;entryDx=0;entryDy=0;entryPerimeter=0;" edge="1" parent="1" source="eAod_zT2K9FnRiEAxt5G-3" target="XJCAifkZVqGINSNeB5S7-3">
          <mxGeometry width="160" relative="1" as="geometry">
            <mxPoint x="210" y="420" as="sourcePoint" />
            <mxPoint x="370" y="420" as="targetPoint" />
          </mxGeometry>
        </mxCell>
        <mxCell id="eAod_zT2K9FnRiEAxt5G-6" value="logout" style="ellipse;whiteSpace=wrap;html=1;" vertex="1" parent="1">
          <mxGeometry x="325" y="410" width="90" height="50" as="geometry" />
        </mxCell>
        <mxCell id="eAod_zT2K9FnRiEAxt5G-7" value="Use" style="endArrow=open;endSize=12;dashed=1;html=1;rounded=0;exitX=0.012;exitY=0.7;exitDx=0;exitDy=0;exitPerimeter=0;" edge="1" parent="1" source="eAod_zT2K9FnRiEAxt5G-6">
          <mxGeometry width="160" relative="1" as="geometry">
            <mxPoint x="330" y="490" as="sourcePoint" />
            <mxPoint x="260" y="430" as="targetPoint" />
          </mxGeometry>
        </mxCell>
        <mxCell id="eAod_zT2K9FnRiEAxt5G-8" value="&amp;nbsp;update cart" style="ellipse;whiteSpace=wrap;html=1;" vertex="1" parent="1">
          <mxGeometry x="350" y="800" width="100" height="60" as="geometry" />
        </mxCell>
        <mxCell id="eAod_zT2K9FnRiEAxt5G-10" value="Extends" style="endArrow=block;endSize=16;endFill=0;html=1;rounded=0;exitX=0.406;exitY=1.037;exitDx=0;exitDy=0;exitPerimeter=0;" edge="1" parent="1" source="eAod_zT2K9FnRiEAxt5G-2" target="eAod_zT2K9FnRiEAxt5G-1">
          <mxGeometry width="160" relative="1" as="geometry">
            <mxPoint x="180.83999999999997" y="770.27" as="sourcePoint" />
            <mxPoint x="394.17" y="779.72" as="targetPoint" />
          </mxGeometry>
        </mxCell>
        <mxCell id="eAod_zT2K9FnRiEAxt5G-11" value="Extends" style="endArrow=block;endSize=16;endFill=0;html=1;rounded=0;exitX=0.055;exitY=0.673;exitDx=0;exitDy=0;exitPerimeter=0;entryX=1;entryY=0.5;entryDx=0;entryDy=0;" edge="1" parent="1" source="eAod_zT2K9FnRiEAxt5G-8" target="eAod_zT2K9FnRiEAxt5G-1">
          <mxGeometry width="160" relative="1" as="geometry">
            <mxPoint x="325" y="730" as="sourcePoint" />
            <mxPoint x="387.91" y="789.28" as="targetPoint" />
          </mxGeometry>
        </mxCell>
        <mxCell id="eAod_zT2K9FnRiEAxt5G-12" value="update bill" style="ellipse;whiteSpace=wrap;html=1;" vertex="1" parent="1">
          <mxGeometry x="315" y="640" width="100" height="50" as="geometry" />
        </mxCell>
        <mxCell id="eAod_zT2K9FnRiEAxt5G-13" value="Extends" style="endArrow=block;endSize=16;endFill=0;html=1;rounded=0;exitX=0.321;exitY=0.995;exitDx=0;exitDy=0;exitPerimeter=0;" edge="1" parent="1" source="eAod_zT2K9FnRiEAxt5G-12">
          <mxGeometry width="160" relative="1" as="geometry">
            <mxPoint x="289.9996766721162" y="679.9999615317696" as="sourcePoint" />
            <mxPoint x="282.45" y="754.8" as="targetPoint" />
          </mxGeometry>
        </mxCell>
        <mxCell id="eAod_zT2K9FnRiEAxt5G-14" value="update items" style="ellipse;whiteSpace=wrap;html=1;" vertex="1" parent="1">
          <mxGeometry x="415" y="490" width="110" height="70" as="geometry" />
        </mxCell>
      </root>
    </mxGraphModel>
  </diagram>
</mxfile>
